<svg width="100" height="125" xmlns="http://www.w3.org/2000/svg" data-name="Your Icon">
 <title>Noun_Project_MASTERFILE_10px_grid</title>

 <g>
  <title>Layer 1</title>
  <g transform="rotate(180, 50.0077, 50.0206)" id="svg_11">
   <g id="svg_1" data-name="STROKE 3A97149D-A0C6-40DE-AF44-642B5F445651">
    <path id="svg_2" d="m14.922,55a1.5,1.5 0 0 1 -1.313,-2.224c4.976,-9.029 11.869,-18.791 25.266,-22.726a45.886,45.886 0 0 1 18.8,-1.919a37.606,37.606 0 0 1 16.26,5.957a40.663,40.663 0 0 1 12.465,14.527a1.5,1.5 0 0 1 -2.637,1.43a37.746,37.746 0 0 0 -11.536,-13.489a34.572,34.572 0 0 0 -14.944,-5.448a42.846,42.846 0 0 0 -17.562,1.824c-12.353,3.628 -18.8,12.8 -23.485,21.295a1.5,1.5 0 0 1 -1.314,0.773z"/>
   </g>
   <g id="svg_3" data-name="STROKE 4458CA9B-EF65-4B84-A9CD-9C2B82B6F2FB">
    <path id="svg_4" d="m50.611,72.166a45.167,45.167 0 0 1 -9.477,-0.973c-5.332,-1.141 -10.119,-3.431 -14.748,-5.646c-2.541,-1.217 -4.832,-3.651 -7.047,-6a28.732,28.732 0 0 0 -5.2,-4.759a1.5,1.5 0 0 1 1.56,-2.562a31.074,31.074 0 0 1 5.82,5.265c2.027,2.153 4.123,4.379 6.158,5.353c4.471,2.14 9.1,4.352 14.082,5.42a45.566,45.566 0 0 0 15.774,0.417c6.7,-0.925 11.449,-2.49 15.4,-5.075c4,-2.615 7.219,-8.46 9.806,-13.158c0.353,-0.639 0.694,-1.258 1.026,-1.848a1.5,1.5 0 1 1 2.615,1.468c-0.327,0.583 -0.664,1.2 -1.013,1.829c-2.748,4.988 -6.168,11.2 -10.791,14.219c-4.343,2.84 -9.473,4.548 -16.634,5.537a53.609,53.609 0 0 1 -7.331,0.513z"/>
   </g>
   <g id="svg_5" data-name="STROKE 5324C0A2-791B-43D0-993E-D4C77893C2A3">
    <path id="svg_6" d="m49.768,67.309a20.749,20.749 0 0 1 -10.768,-2.781c-3.564,-2.183 -5.723,-4.863 -6.415,-7.964a18.478,18.478 0 0 1 0.361,-10.5a20.583,20.583 0 0 1 6.595,-9.421c2.656,-2.073 5.244,-3.8 10.024,-3.989a1.257,1.257 0 0 1 0.221,0.008a33.473,33.473 0 0 1 11.214,2.95c4.671,2.231 7.707,5.1 9.024,8.535c2.981,7.767 -2.181,16.969 -8.677,20.371a25.246,25.246 0 0 1 -11.579,2.791zm-0.2,-31.653c-3.5,0.156 -5.44,1.21 -8.185,3.351a17.507,17.507 0 0 0 -5.635,8.12a15.875,15.875 0 0 0 -0.238,8.783c0.509,2.278 2.209,4.317 5.054,6.06c5.2,3.189 13.177,3.143 19.393,-0.111c5.366,-2.809 9.614,-10.521 7.268,-16.637c-1.034,-2.692 -3.562,-5.014 -7.517,-6.9a30.5,30.5 0 0 0 -10.141,-2.666l0.001,0z"/>
   </g>
   <g transform="rotate(1, 51.4447, 49.7261)" id="svg_7" data-name="STROKE FD145AE9-E6C3-4B96-BB15-AB9BA47A185C">
    <path id="svg_8" d="m51.038,55.362a5.874,5.874 0 0 1 -3.789,-1.3a4.466,4.466 0 0 1 -1.594,-3.389c-0.063,-2.8 1.594,-5.1 4.549,-6.313a1.608,1.608 0 0 1 0.253,-0.078a5.672,5.672 0 0 1 4.945,1a5.371,5.371 0 0 1 1.824,4.371a6.073,6.073 0 0 1 -5.269,5.647a6.633,6.633 0 0 1 -0.919,0.062zm0.176,-8.174c-1.734,0.745 -2.594,1.893 -2.559,3.415a1.5,1.5 0 0 0 0.537,1.171a3.142,3.142 0 0 0 2.351,0.554a3.084,3.084 0 0 0 2.685,-2.781a2.413,2.413 0 0 0 -0.753,-1.966a2.731,2.731 0 0 0 -2.261,-0.393z"/>
   </g>
  </g>
 </g>
</svg>