<svg xmlns="http://www.w3.org/2000/svg" data-name="Your Icon" viewBox="0 0 100 125" x="0px" y="0px"><title>Noun_Project_MASTERFILE_10px_grid</title><g data-name="STROKE 3A97149D-A0C6-40DE-AF44-642B5F445651"><path d="M14.922,55a1.5,1.5,0,0,1-1.313-2.224c4.976-9.029,11.869-18.791,25.266-22.726a45.886,45.886,0,0,1,18.8-1.919,37.606,37.606,0,0,1,16.26,5.957A40.663,40.663,0,0,1,86.4,48.615a1.5,1.5,0,0,1-2.637,1.43A37.746,37.746,0,0,0,72.227,36.556a34.572,34.572,0,0,0-14.944-5.448,42.846,42.846,0,0,0-17.562,1.824c-12.353,3.628-18.8,12.8-23.485,21.295A1.5,1.5,0,0,1,14.922,55Z"/></g><g data-name="STROKE 4458CA9B-EF65-4B84-A9CD-9C2B82B6F2FB"><path d="M50.611,72.166a45.167,45.167,0,0,1-9.477-.973c-5.332-1.141-10.119-3.431-14.748-5.646-2.541-1.217-4.832-3.651-7.047-6a28.732,28.732,0,0,0-5.2-4.759,1.5,1.5,0,0,1,1.56-2.562,31.074,31.074,0,0,1,5.82,5.265c2.027,2.153,4.123,4.379,6.158,5.353,4.471,2.14,9.1,4.352,14.082,5.42a45.566,45.566,0,0,0,15.774.417c6.7-.925,11.449-2.49,15.4-5.075,4-2.615,7.219-8.46,9.806-13.158.353-.639.694-1.258,1.026-1.848a1.5,1.5,0,1,1,2.615,1.468c-.327.583-.664,1.2-1.013,1.829-2.748,4.988-6.168,11.2-10.791,14.219-4.343,2.84-9.473,4.548-16.634,5.537A53.609,53.609,0,0,1,50.611,72.166Z"/></g><g data-name="STROKE 5324C0A2-791B-43D0-993E-D4C77893C2A3"><path d="M49.768,67.309A20.749,20.749,0,0,1,39,64.528c-3.564-2.183-5.723-4.863-6.415-7.964a18.478,18.478,0,0,1,.361-10.5,20.583,20.583,0,0,1,6.595-9.421c2.656-2.073,5.244-3.8,10.024-3.989a1.257,1.257,0,0,1,.221.008A33.473,33.473,0,0,1,61,35.612c4.671,2.231,7.707,5.1,9.024,8.535,2.981,7.767-2.181,16.969-8.677,20.371A25.246,25.246,0,0,1,49.768,67.309Zm-.2-31.653c-3.5.156-5.44,1.21-8.185,3.351a17.507,17.507,0,0,0-5.635,8.12,15.875,15.875,0,0,0-.238,8.783c.509,2.278,2.209,4.317,5.054,6.06,5.2,3.189,13.177,3.143,19.393-.111,5.366-2.809,9.614-10.521,7.268-16.637-1.034-2.692-3.562-5.014-7.517-6.9A30.5,30.5,0,0,0,49.567,35.656Z"/></g><g data-name="STROKE FD145AE9-E6C3-4B96-BB15-AB9BA47A185C"><path d="M51.038,55.362a5.874,5.874,0,0,1-3.789-1.3,4.466,4.466,0,0,1-1.594-3.389c-.063-2.8,1.594-5.1,4.549-6.313a1.608,1.608,0,0,1,.253-.078,5.672,5.672,0,0,1,4.945,1,5.371,5.371,0,0,1,1.824,4.371A6.073,6.073,0,0,1,51.957,55.3,6.633,6.633,0,0,1,51.038,55.362Zm.176-8.174c-1.734.745-2.594,1.893-2.559,3.415a1.5,1.5,0,0,0,.537,1.171,3.142,3.142,0,0,0,2.351.554,3.084,3.084,0,0,0,2.685-2.781,2.413,2.413,0,0,0-.753-1.966A2.731,2.731,0,0,0,51.214,47.188Z"/></g><text x="0" y="115" fill="#000000" font-size="5px" font-weight="bold" font-family="'Helvetica Neue', Helvetica, Arial-Unicode, Arial, Sans-serif">Created by Insticon</text><text x="0" y="120" fill="#000000" font-size="5px" font-weight="bold" font-family="'Helvetica Neue', Helvetica, Arial-Unicode, Arial, Sans-serif">from the Noun Project</text></svg>